<?xml version="1.0" encoding="utf-8"?>
<!-- Generator: Adobe Illustrator 17.1.0, SVG Export Plug-In . SVG Version: 6.00 Build 0)  -->
<!DOCTYPE svg PUBLIC "-//W3C//DTD SVG 1.1//EN" "http://www.w3.org/Graphics/SVG/1.1/DTD/svg11.dtd">
<svg version="1.1" id="Layer_1" xmlns="http://www.w3.org/2000/svg" xmlns:xlink="http://www.w3.org/1999/xlink" x="0px" y="0px"
	 viewBox="0 0 500 500" enable-background="new 0 0 500 500" xml:space="preserve">
<rect x="151.687" y="292.54" fill="#394856" width="14.646" height="65.659"/>
<polygon fill="#394856" points="195.624,283.393 180.978,283.393 180.978,358.199 195.624,358.199 210.269,358.199 210.269,283.393 
	"/>
<polygon fill="#394856" points="254.206,254.102 239.561,254.102 224.915,254.102 224.915,358.199 239.561,358.199 254.206,358.199 
	268.852,358.199 268.852,254.102 "/>
<polygon fill="#394856" points="327.434,210.165 312.789,210.165 298.143,210.165 283.498,210.165 283.498,358.199 298.143,358.199 
	312.789,358.199 327.434,358.199 342.08,358.199 342.08,210.165 "/>
<circle fill="none" stroke="#394856" stroke-width="15" stroke-miterlimit="10" cx="250" cy="250" r="237"/>
<rect x="210.076" y="193.811" transform="matrix(0.8106 0.5856 -0.5856 0.8106 165.7135 -103.1469)" fill="#394856" width="64.488" height="21.611"/>
<polygon fill="#394856" points="192.535,254.24 151.523,224.612 151.25,250.95 179.88,271.758 "/>
<rect x="242.441" y="172.056" transform="matrix(0.5935 -0.8049 0.8049 0.5935 -31.3193 303.7185)" fill="#394856" width="85.092" height="21.611"/>
<rect x="163.441" y="207.016" transform="matrix(0.5935 -0.8049 0.8049 0.5935 -91.5746 254.3469)" fill="#394856" width="85.092" height="21.611"/>
<polygon fill="#394856" points="342.119,105.605 331.397,138.927 320.676,172.25 302.784,159.093 284.893,145.935 313.506,125.77 
	"/>
</svg>
