<?xml version="1.0" encoding="utf-8"?>
<!-- Generator: Adobe Illustrator 17.1.0, SVG Export Plug-In . SVG Version: 6.00 Build 0)  -->
<!DOCTYPE svg PUBLIC "-//W3C//DTD SVG 1.1//EN" "http://www.w3.org/Graphics/SVG/1.1/DTD/svg11.dtd">
<svg version="1.1" id="Layer_1" xmlns="http://www.w3.org/2000/svg" xmlns:xlink="http://www.w3.org/1999/xlink" x="0px" y="0px"
	 viewBox="0 0 500 500" enable-background="new 0 0 500 500" xml:space="preserve">
<path fill="none" stroke="#394856" stroke-width="3" stroke-miterlimit="10" d="M173.292,226.427l1.494,19.171
	c0,0,12.279-0.1,21.412-5.228C186.986,225.68,173.292,226.427,173.292,226.427z"/>
<path fill="none" stroke="#394856" stroke-width="6" stroke-miterlimit="10" d="M168.088,217.962c0,0,25.146-1.992,35.354,23.404"/>
<path fill="none" stroke="#394856" stroke-width="5" stroke-miterlimit="10" d="M163.606,196.301c1.743,2.49,6.473,0,6.971-1.494
	c1.992,8.465,7.449,11.702,13.31,11.702c4.616,10.457,17.563,10.955,17.563,10.955"/>
<path fill="none" stroke="#394856" stroke-width="15" stroke-miterlimit="10" d="M370.98,266.616
	c-0.948-6.751-24.954-45.909-24.954-45.909s1.399-6.648,0-9.722c-3.475-4.591-6.002-9.182-5.054-12.422
	c0.948-3.241,10.74-9.452,10.108-18.634c-0.632-3.241-3.159-11.882-14.846-11.612c-3.475,0,0-10.802-17.057-10.262
	c-1.579-4.051-26.533-20.254-69.177-11.342c-42.643-8.912-67.597,7.291-69.177,11.342c-17.057-0.54-13.583,10.262-17.057,10.262
	c-11.687-0.27-14.214,8.372-14.846,11.612c-0.632,9.182,9.16,15.393,10.108,18.634c0.948,3.241-1.579,7.832-5.054,12.422
	c-1.399,3.074,0,9.722,0,9.722s-24.007,39.158-24.954,45.909c-0.948,6.751,24.954,5.131,24.954,5.131s-2.211,7.561-3.159,9.452
	c-1.579,3.781,4.422,7.561,4.422,7.561s-6.633,5.401-4.106,8.102c1.342,4.303,2.527,8.102,2.527,8.102l-1.264,6.751
	c0,0-6.633,5.401-6.949,9.452c-0.316,4.051,2.843,8.642,9.476,11.882c0.316,7.021,7.581,13.503,7.581,13.503s12.003,4.591,18.953,0
	c1.579,4.051,6.633,5.131,14.214,7.562c7.581,2.43,20.216-5.131,20.216-5.131s12.003-0.27,17.373-4.051
	c5.37-3.781,6.949-12.422,6.949-12.422l9.792-8.102l9.792,8.102c0,0,1.579,8.642,6.949,12.422c5.37,3.781,17.373,4.051,17.373,4.051
	s12.635,7.562,20.216,5.131c7.581-2.43,12.635-3.511,14.214-7.562c6.949,4.591,18.953,0,18.953,0s7.265-6.481,7.581-13.503
	c6.633-3.241,9.792-7.832,9.476-11.882c-0.316-4.051-6.949-9.452-6.949-9.452l-1.263-6.751c0,0,1.185-3.799,2.527-8.102
	c2.527-2.701-4.106-8.102-4.106-8.102s6.002-3.781,4.422-7.561c-0.948-1.89-3.159-9.452-3.159-9.452S371.928,273.367,370.98,266.616
	z"/>
<path fill="none" stroke="#394856" stroke-width="3" stroke-miterlimit="10" d="M326.708,226.427l-1.494,19.171
	c0,0-12.279-0.1-21.412-5.228C313.014,225.68,326.708,226.427,326.708,226.427z"/>
<path fill="none" stroke="#394856" stroke-width="6" stroke-miterlimit="10" d="M331.912,217.962c0,0-25.146-1.992-35.354,23.404"/>
<path fill="none" stroke="#394856" stroke-width="5" stroke-miterlimit="10" d="M336.394,196.301c-1.743,2.49-6.473,0-6.971-1.494
	c-1.992,8.465-7.449,11.702-13.31,11.702c-4.616,10.457-17.563,10.955-17.563,10.955"/>
<line fill="none" stroke="#394856" stroke-width="4" stroke-miterlimit="10" x1="250" y1="150.241" x2="250" y2="189.829"/>
<line fill="none" stroke="#394856" stroke-width="4" stroke-miterlimit="10" x1="250" y1="290.912" x2="250" y2="323.279"/>
<line fill="none" stroke="#394856" stroke-width="3" stroke-miterlimit="10" x1="161.863" y1="288.795" x2="172.235" y2="288.795"/>
<line fill="none" stroke="#394856" stroke-width="3" stroke-miterlimit="10" x1="327.474" y1="288.795" x2="337.845" y2="288.795"/>
<path fill="#394856" d="M182.528,243.064c0,0.976-0.791,1.766-1.766,1.766h-5.107c-0.976,0-1.766-0.791-1.766-1.766v-7.227
	c0-0.976,0.791-1.766,1.766-1.766h5.107c0.976,0,1.766,0.791,1.766,1.766V243.064z"/>
<path fill="#394856" d="M326.112,243.064c0,0.976-0.791,1.766-1.766,1.766h-5.107c-0.976,0-1.766-0.791-1.766-1.766v-7.227
	c0-0.976,0.791-1.766,1.766-1.766h5.107c0.976,0,1.766,0.791,1.766,1.766V243.064z"/>
<circle fill="none" stroke="#394856" stroke-width="15" stroke-miterlimit="10" cx="250" cy="250" r="237"/>
</svg>
