<?xml version="1.0" encoding="utf-8"?>
<!-- Generator: Adobe Illustrator 17.1.0, SVG Export Plug-In . SVG Version: 6.00 Build 0)  -->
<!DOCTYPE svg PUBLIC "-//W3C//DTD SVG 1.1//EN" "http://www.w3.org/Graphics/SVG/1.1/DTD/svg11.dtd">
<svg version="1.1" id="Layer_1" xmlns="http://www.w3.org/2000/svg" xmlns:xlink="http://www.w3.org/1999/xlink" x="0px" y="0px"
	 viewBox="0 0 500 500" enable-background="new 0 0 500 500" xml:space="preserve">
<circle fill="none" stroke="#394856" stroke-width="15" stroke-miterlimit="10" cx="251.5" cy="250" r="237"/>
<rect x="225.336" y="141.166" fill="#FFFFFF" width="5.982" height="10.527"/>
<rect x="270.023" y="141.166" fill="#FFFFFF" width="5.982" height="10.527"/>
<path fill="#394856" d="M317.742,322.634c0,13.195-9.617,23.892-21.48,23.892h-89.32c-11.863,0-21.48-10.697-21.48-23.892v-68.523
	c0-13.195,9.617-23.892,21.48-23.892h89.32c11.863,0,21.48,10.697,21.48,23.892V322.634z"/>
<rect x="185.463" y="203.285" fill="#394856" width="132.047" height="73.457"/>
<rect x="216.376" y="120.909" fill="#394856" width="17.708" height="91.821"/>
<rect x="267.008" y="120.909" fill="#394856" width="17.708" height="91.821"/>
<path fill="#394856" d="M283.607,344.285c0,11.56-13.769,20.93-30.753,20.93h-2.734c-16.985,0-30.753-9.371-30.753-20.93V306.61
	c0-11.56,13.769-20.93,30.753-20.93h2.734c16.985,0,30.753,9.371,30.753,20.93V344.285z"/>
<rect x="238.502" y="335.619" fill="#394856" width="25.97" height="46.472"/>
<rect x="215.185" y="280.392" fill="#FFFFFF" width="73.067" height="5.287"/>
<rect x="215.185" y="292.478" fill="#FFFFFF" width="73.067" height="5.287"/>
<rect x="215.185" y="304.564" fill="#FFFFFF" width="73.067" height="5.287"/>
<rect x="215.185" y="316.65" fill="#FFFFFF" width="73.067" height="5.287"/>
<rect x="220.855" y="126.5" fill="#FFFFFF" width="8.75" height="10"/>
<rect x="271.63" y="126.5" fill="#FFFFFF" width="8.75" height="10"/>
</svg>
