<?xml version="1.0" encoding="utf-8"?>
<!-- Generator: Adobe Illustrator 17.1.0, SVG Export Plug-In . SVG Version: 6.00 Build 0)  -->
<!DOCTYPE svg PUBLIC "-//W3C//DTD SVG 1.1//EN" "http://www.w3.org/Graphics/SVG/1.1/DTD/svg11.dtd">
<svg version="1.1" id="Layer_1" xmlns="http://www.w3.org/2000/svg" xmlns:xlink="http://www.w3.org/1999/xlink" x="0px" y="0px"
	 viewBox="0 0 500 500" enable-background="new 0 0 500 500" xml:space="preserve">
<circle fill="none" stroke="#394856" stroke-width="15" stroke-miterlimit="10" cx="251.5" cy="250" r="237"/>
<circle fill="#394856" cx="181.014" cy="197.061" r="67"/>
<g>
	<path fill="#FFFFFF" d="M181.2,158.947c10.305,0.001,20.613-0.137,30.914,0.075c3.687,0.076,7.471,0.598,11.012,1.611
		c8.932,2.555,13.296,9.377,14.608,17.994c1.337,8.785-1.343,16.439-9.471,21.003c-7.494,4.209-15.443,3.474-22.778-0.337
		c-9.127-4.743-14.47-12.799-17.2-22.589c-0.404-1.447-0.279-3.088-0.164-4.621c0.124-1.67,0.815-3.227-1.061-4.582
		c-2.301-1.661-4.668-3.226-7.495-2.342c-1.91,0.597-3.576,2.041-5.263,3.233c-0.397,0.28-0.667,1.096-0.605,1.619
		c1.449,12.096-5.217,20.271-13.698,27.181c-6.01,4.897-13.358,6.059-20.938,4.428c-10.039-2.16-16.61-11.498-14.791-22.754
		c2.101-13.003,10.767-19.832,24.646-19.907C159.677,158.899,170.439,158.946,181.2,158.947z M197.291,160.692
		c-10.69,0-21.641,0-32.482,0c2.535,1.953,5.073,3.908,7.643,5.889c6.958-5.656,10.743-5.19,17.194-0.061
		C192.256,164.531,194.812,162.582,197.291,160.692z M126.061,181.182c1.187,0,2.151,0,2.936,0c0.794-2.471,1.311-4.892,2.344-7.068
		c1.039-2.19,2.47-4.229,3.952-6.164c1.42-1.856,3.125-3.494,4.854-5.391C132.162,166.286,128.578,173.078,126.061,181.182z"/>
</g>
<path fill="none" stroke="#FFFFFF" stroke-width="7" stroke-miterlimit="10" d="M165.014,241.728"/>
<path fill="#FFFFFF" d="M180.714,214.934c12.414-11.6,18.87-11.752,32.368-0.815c2.204,1.786,4.495,3.464,6.724,5.219
	c3.355,2.641,6.484,2.443,9.384-0.709c1.331-1.446,2.63-2.921,4.346-4.036c-0.15,9.08-5.399,14.516-12.659,18.717
	c-16.027,9.273-28.064,0.818-40.154-9.079c-9.41,11.101-20.673,16.594-35.284,10.929c-9.05-3.508-15.384-9.349-16.988-19.933
	c1.144,0.968,1.945,1.644,2.745,2.321c5.122,4.336,10.212,3.777,15.157-0.704c3.823-3.465,8.104-6.651,12.669-9.019
	c7.645-3.965,13.156-2.562,19.03,3.812C179.007,212.674,179.829,213.832,180.714,214.934z"/>
<circle fill="#394856" cx="251.474" cy="318.939" r="67"/>
<path fill="#FFFFFF" d="M281.108,328.379c-11.182,0.729-22.684-8.565-24.537-19.012c-0.174-0.98-0.277-1.973-0.407-2.961
	c-0.329-2.51-1.953-4.022-4.449-3.823c-1.263,0.101-2.588,0.49-3.692,1.099c-0.646,0.357-1.271,1.393-1.294,2.141
	c-0.351,11.615-9.988,20.247-19.554,22.118c-14.03,2.745-25.364-5.136-29.291-15.788c-0.35-0.95-1.539-1.804-2.539-2.262
	c-3.119-1.43-4.293-3.616-3.891-7.072c0.196-1.689,0.488-2.842,1.977-3.794c2.824-1.805,5.082-4.048,6.971-7.012
	c8.057-12.646,25.612-15.365,37.335-6.008c2.991,2.387,5.502,5.259,7.026,8.844c0.385,0.905,0.807,1.349,1.893,1.319
	c3.18-0.088,6.367,0.029,9.546-0.084c0.609-0.022,1.473-0.581,1.749-1.129c8.331-16.534,27.91-17.921,38.941-9.136
	c2.249,1.791,4.297,4.074,5.775,6.529c1.536,2.551,3.432,4.479,5.838,6.084c1.02,0.68,2.51,1.436,2.716,2.389
	c0.426,1.967,0.159,4.09,0.104,6.147c-0.007,0.27-0.422,0.563-0.698,0.782c-0.389,0.308-0.81,0.583-1.243,0.826
	c-2.589,1.454-4.43,3.329-5.728,6.226C300.141,322.648,290.88,328.903,281.108,328.379z M221.563,324.225
	c0.374,0,0.748-0.002,1.122,0c11.227,0.072,24.155-11.695,19.046-26.588c-2.649-7.721-10.466-14.272-21.342-13.723
	c-10.852,0.548-19.751,9.407-19.769,19.984C200.6,315.179,209.92,324.225,221.563,324.225z M281.018,324.369
	c1.542-0.172,3.107-0.229,4.623-0.533c12.221-2.457,19.484-14.783,15.503-26.247c-3.022-8.705-11.046-13.826-21.179-13.655
	c-11.38,0.192-22.207,11.008-19.554,24.272C261.976,316.032,270.847,324.724,281.018,324.369z"/>
<circle fill="#394856" cx="321.986" cy="197.061" r="67"/>
<path fill="#FFFFFF" d="M270.303,169.839c4.019,0.329,8.045,0.592,12.056,1.004c6.523,0.669,12.931,1.987,19.111,4.177
	c2.732,0.968,5.276,2.463,7.93,3.662c2.319,1.048,4.634,2.128,7.023,2.997c3.154,1.147,6.359,0.972,9.539-0.072
	c2.842-0.933,5.522-2.233,8.118-3.678c4.762-2.65,9.886-4.248,15.172-5.343c3.584-0.742,7.201-1.41,10.837-1.794
	c4.269-0.451,8.573-0.612,12.866-0.793c2.321-0.098,3.676,1.331,3.781,3.668c0.113,2.525-0.568,4.898-1.393,7.233
	c-1.237,3.499-2.848,6.828-4.574,10.114c-1.614,3.073-3.476,5.969-5.662,8.653c-2.696,3.311-5.762,6.205-9.559,8.257
	c-3.62,1.957-7.487,2.499-11.534,2.163c-3.967-0.329-7.527-1.692-10.636-4.175c-2.853-2.278-4.972-5.165-6.648-8.374
	c-0.823-1.576-1.484-3.237-2.232-4.854c-0.229-0.494-0.439-1.017-0.768-1.441c-1.663-2.144-4.277-2.008-5.662,0.336
	c-0.572,0.968-0.927,2.064-1.386,3.099c-1.638,3.699-3.678,7.132-6.62,9.965c-3.335,3.212-7.314,4.943-11.923,5.432
	c-7.056,0.748-12.794-1.866-17.759-6.634c-4.628-4.445-8-9.752-10.726-15.516c-1.481-3.132-2.906-6.284-3.792-9.645
	c-0.477-1.809-0.842-3.643-0.442-5.524c0.371-1.741,1.563-2.719,3.348-2.772c0.507-0.015,1.015-0.002,1.522-0.002
	C270.295,169.935,270.299,169.887,270.303,169.839z M282.9,174.842c-0.01-0.052-0.019-0.103-0.029-0.155
	c-1.613,0.258-3.258,0.392-4.831,0.803c-2.148,0.561-3.738,1.882-4.503,4.056c-0.594,1.689-0.611,3.429-0.391,5.165
	c0.618,4.888,2.396,9.315,5.463,13.189c3.51,4.434,7.84,7.724,13.352,9.27c3.589,1.007,7.202,1.04,10.668-0.415
	c6.699-2.814,10.742-7.855,11.902-15.04c0.523-3.238-0.5-6.096-3.01-8.319c-1.453-1.287-3.132-2.23-4.869-3.067
	c-3.924-1.892-8.073-3.11-12.32-4.007C290.561,175.525,286.762,174.926,282.9,174.842z M358.654,174.85
	c-0.596,0.033-1.612,0.049-2.619,0.153c-4.214,0.435-8.377,1.171-12.458,2.314c-4.067,1.139-8.017,2.567-11.575,4.915
	c-2.253,1.487-3.884,3.423-4.423,6.135c-0.434,2.183-0.14,4.319,0.536,6.409c0.862,2.665,2.302,5.009,4.177,7.069
	c5.392,5.926,12.624,7.483,19.877,4.627c5.222-2.056,9.316-5.566,12.414-10.225c2.888-4.343,4.488-9.1,4.35-14.36
	c-0.081-3.078-1.747-5.296-4.649-6.315C362.598,174.981,360.842,174.86,358.654,174.85z"/>
<path fill="#FFFFFF" d="M345.484,232.559c-0.392-0.794-17.856-6.552-20.353-6.276c-1.712,0.19-2.696,0.736-3.145,2.528
	c-0.449-1.792-1.432-2.338-3.145-2.528c-2.497-0.277-19.961,5.481-20.353,6.276c-0.379,0.769,7.638,6.479,16.828,7.568
	c2.975,0.352,5.776,0.124,6.671,0.033c0.894,0.091,3.696,0.319,6.671-0.033C337.845,239.038,345.863,233.328,345.484,232.559z"/>
<g>
	<path d="M310.431,233.295c0.475,0.107,0.954,0.207,1.423,0.259c0.231,0.041,0.476,0.041,0.713,0.06
		c0.238,0.019,0.476,0.028,0.716,0.024c0.953,0.034,1.909-0.02,2.861-0.087c1.901-0.146,3.813-0.405,5.677-0.743l0.086-0.016
		l0.075,0.01c0.885,0.12,1.792,0.164,2.692,0.25c0.9,0.111,1.805,0.088,2.71,0.155l1.36,0.076c0.228,0.025,0.452-0.001,0.679,0.001
		l0.68-0.011c0.909,0.008,1.82-0.014,2.744,0.023c-0.895,0.181-1.804,0.301-2.715,0.454l-0.685,0.097
		c-0.229,0.024-0.458,0.077-0.687,0.078l-1.378,0.049c-0.919,0.022-1.843,0.075-2.762,0.012c-0.921-0.042-1.838-0.093-2.765-0.196
		l0.16-0.005c-0.975,0.186-1.937,0.307-2.911,0.414c-0.974,0.084-1.95,0.156-2.931,0.144c-0.98,0-1.962-0.052-2.935-0.205
		c-0.243-0.034-0.484-0.083-0.724-0.141c-0.24-0.058-0.479-0.096-0.717-0.177c-0.236-0.076-0.475-0.137-0.702-0.223L310.431,233.295
		z"/>
</g>
<g>
	<path fill="#FFFFFF" d="M221,345.667c0,0,0.242,0.032,0.695,0.093c0.453,0.055,1.116,0.136,1.961,0.239
		c0.842,0.1,1.865,0.222,3.037,0.361c1.171,0.124,2.493,0.263,3.935,0.416c1.44,0.152,3,0.287,4.648,0.434
		c1.645,0.174,3.391,0.233,5.182,0.402c1.797,0.097,3.653,0.197,5.54,0.299c1.887,0.042,3.802,0.186,5.717,0.144
		c1.915,0.028,3.831,0.08,5.714-0.004c0.942-0.031,1.876-0.046,2.801-0.048c0.923-0.03,1.832-0.095,2.729-0.14
		c0.897-0.044,1.777-0.109,2.643-0.133c0.862-0.058,1.703-0.147,2.524-0.217c1.639-0.164,3.205-0.237,4.628-0.46
		c1.427-0.197,2.746-0.346,3.919-0.478c1.161-0.197,2.173-0.369,3.007-0.511c1.677-0.269,2.652-0.398,2.652-0.398
		s-0.898,0.37-2.497,0.974c-0.801,0.296-1.774,0.673-2.906,1.054c-1.144,0.324-2.44,0.689-3.865,1.053
		c-1.417,0.416-2.984,0.689-4.643,0.986c-0.83,0.146-1.682,0.316-2.556,0.454c-0.876,0.12-1.776,0.203-2.69,0.308
		c-0.914,0.096-1.844,0.214-2.787,0.296c-0.944,0.065-1.9,0.117-2.865,0.154c-1.929,0.119-3.889,0.107-5.85,0.107
		c-1.962,0.006-3.915-0.174-5.841-0.253c-1.923-0.125-3.807-0.362-5.629-0.565c-1.818-0.244-3.573-0.491-5.223-0.813
		c-0.825-0.154-1.628-0.303-2.404-0.448c-0.771-0.175-1.515-0.344-2.23-0.506c-1.432-0.3-2.724-0.685-3.873-0.986
		c-1.145-0.328-2.136-0.629-2.947-0.903c-0.813-0.258-1.442-0.502-1.871-0.661C221.228,345.754,221,345.667,221,345.667z"/>
</g>
</svg>
